# xmcd
#
# Track frame offsets: 
#        150
#        19920
#        38450
#        53680
#        70315
#        89867
#        108305
#        127305
#        142972
#        157842
#
# Disc length: 2356 seconds
#
# Revision: 6
# Processed by: cddbd v1.5.2PL0 Copyright (c) Steve Scherf et al.
# Submitted via: ExactAudioCopy v0.99pb4
#
DISCID=8509320a
DTITLE=Jose luis perales - En clave de amor
DYEAR=1996
DGENRE=Latin
TTITLE0=Cántame
TTITLE1=Amor de otoño
TTITLE2=Me hablaba de ti
TTITLE3=La música de salsa
TTITLE4=Te echo de menos
TTITLE5=Decidieron volar
TTITLE6=Amor adolescente
TTITLE7=Como ha pasado el tiempo
TTITLE8=Escuchando esa música
TTITLE9=Supervivientes
EXTD=DISC: 1\nUPC: 037628208525\nLABEL: Sony Latin\nENSORECORD: 91966\n
EXTD=YEAR: 1996
EXTT0=PERFORMER: JosT Luis Perales\n
EXTT1=PERFORMER: JosT Luis Perales\n
EXTT2=PERFORMER: JosT Luis Perales\n
EXTT3=PERFORMER: JosT Luis Perales\n
EXTT4=PERFORMER: JosT Luis Perales\n
EXTT5=PERFORMER: JosT Luis Perales\n
EXTT6=PERFORMER: JosT Luis Perales\n
EXTT7=PERFORMER: JosT Luis Perales\n
EXTT8=PERFORMER: JosT Luis Perales\n
EXTT9=PERFORMER: JosT Luis Perales\n
PLAYORDER=
